<?xml version="1.0" encoding="UTF-8" standalone="no"?>
<!-- Created with Inkscape (http://www.inkscape.org/) -->

<svg
   xmlns:dc="http://purl.org/dc/elements/1.1/"
   xmlns:cc="http://creativecommons.org/ns#"
   xmlns:rdf="http://www.w3.org/1999/02/22-rdf-syntax-ns#"
   xmlns:svg="http://www.w3.org/2000/svg"
   xmlns="http://www.w3.org/2000/svg"
   xmlns:xlink="http://www.w3.org/1999/xlink"
   xmlns:sodipodi="http://sodipodi.sourceforge.net/DTD/sodipodi-0.dtd"
   xmlns:inkscape="http://www.inkscape.org/namespaces/inkscape"
   width="40mm"
   height="40mm"
   viewBox="0 0 300 400"
   version="1.1"
   id="svg8"
   inkscape:version="0.92.4 (5da689c313, 2019-01-14)"
   sodipodi:docname="logo1.svg">
  <defs
     id="defs2">
    <linearGradient
       inkscape:collect="always"
       id="linearGradient4756">
      <stop
         style="stop-color:#008000;stop-opacity:1;"
         offset="0"
         id="stop4752" />
      <stop
         style="stop-color:#008000;stop-opacity:0;"
         offset="1"
         id="stop4754" />
    </linearGradient>
    <linearGradient
       inkscape:collect="always"
       id="linearGradient4748">
      <stop
         style="stop-color:#008000;stop-opacity:1;"
         offset="0"
         id="stop4744" />
      <stop
         style="stop-color:#008000;stop-opacity:0;"
         offset="1"
         id="stop4746" />
    </linearGradient>
    <linearGradient
       inkscape:collect="always"
       id="linearGradient4730">
      <stop
         style="stop-color:#008000;stop-opacity:1;"
         offset="0"
         id="stop4726" />
      <stop
         style="stop-color:#008000;stop-opacity:0;"
         offset="1"
         id="stop4728" />
    </linearGradient>
    <linearGradient
       inkscape:collect="always"
       id="linearGradient4722">
      <stop
         style="stop-color:#008000;stop-opacity:1;"
         offset="0"
         id="stop4718" />
      <stop
         style="stop-color:#008000;stop-opacity:0;"
         offset="1"
         id="stop4720" />
    </linearGradient>
    <linearGradient
       inkscape:collect="always"
       id="linearGradient4596">
      <stop
         style="stop-color:#008000;stop-opacity:1;"
         offset="0"
         id="stop4592" />
      <stop
         style="stop-color:#008000;stop-opacity:0;"
         offset="1"
         id="stop4594" />
    </linearGradient>
    <inkscape:path-effect
       effect="powerstroke"
       id="path-effect3800"
       is_visible="true"
       offset_points="0,0.13229166"
       sort_points="true"
       interpolator_type="CubicBezierJohan"
       interpolator_beta="0.2"
       start_linecap_type="zerowidth"
       linejoin_type="extrp_arc"
       miter_limit="4"
       end_linecap_type="zerowidth" />
    <linearGradient
       inkscape:collect="always"
       xlink:href="#linearGradient4596"
       id="linearGradient4606"
       x1="-144.09312"
       y1="818.05322"
       x2="705.2196"
       y2="260.68466"
       gradientUnits="userSpaceOnUse" />
    <linearGradient
       inkscape:collect="always"
       xlink:href="#linearGradient4722"
       id="linearGradient4724"
       x1="-63.572735"
       y1="818.98901"
       x2="694.49475"
       y2="269.66476"
       gradientUnits="userSpaceOnUse" />
    <linearGradient
       inkscape:collect="always"
       xlink:href="#linearGradient4730"
       id="linearGradient4732"
       x1="451.65121"
       y1="488.777"
       x2="881.23159"
       y2="488.777"
       gradientUnits="userSpaceOnUse" />
    <linearGradient
       inkscape:collect="always"
       xlink:href="#linearGradient4748"
       id="linearGradient4750"
       x1="290.91176"
       y1="758.65055"
       x2="399.98121"
       y2="758.65055"
       gradientUnits="userSpaceOnUse" />
    <linearGradient
       inkscape:collect="always"
       xlink:href="#linearGradient4756"
       id="linearGradient4758"
       x1="546.92219"
       y1="535.42062"
       x2="680.84926"
       y2="535.42062"
       gradientUnits="userSpaceOnUse" />
  </defs>
  <sodipodi:namedview
     id="base"
     pagecolor="#ffffff"
     bordercolor="#666666"
     borderopacity="1.0"
     inkscape:pageopacity="0.0"
     inkscape:pageshadow="2"
     inkscape:zoom="0.38352688"
     inkscape:cx="412.72602"
     inkscape:cy="524.6821"
     inkscape:document-units="mm"
     inkscape:current-layer="layer1"
     showgrid="false"
     inkscape:snap-to-guides="false"
     inkscape:window-width="716"
     inkscape:window-height="665"
     inkscape:window-x="-5"
     inkscape:window-y="26"
     inkscape:window-maximized="0" />
  <metadata
     id="metadata5">
    <rdf:RDF>
      <cc:Work
         rdf:about="">
        <dc:format>image/svg+xml</dc:format>
        <dc:type
           rdf:resource="http://purl.org/dc/dcmitype/StillImage" />
        <dc:title />
      </cc:Work>
    </rdf:RDF>
  </metadata>
  <g
     inkscape:label="Capa 1"
     inkscape:groupmode="layer"
     id="layer1">
    <path
       style="fill:none;stroke:#000000;stroke-width:1.76343751;stroke-linecap:butt;stroke-linejoin:miter;stroke-miterlimit:4;stroke-dasharray:none;stroke-opacity:1"
       d="M -38.124638,216.44325 C 50.61256,202.92425 43.219996,-21.517701 150.63401,19.916524 c 28.53021,11.005334 27.92364,38.252943 34.26471,48.12594 8.0942,12.602618 47.22882,-1.084367 49.47713,36.027656 4.55491,75.18626 -148.084039,193.1623 -272.500488,112.37313 z"
       id="path3804"
       inkscape:connector-curvature="0"
       sodipodi:nodetypes="csssc" />
    <g
       id="g4622"
       style="opacity:0.75700001;stroke:#000000;stroke-width:1.955;stroke-miterlimit:4;stroke-dasharray:none;stroke-opacity:1"
       transform="rotate(30,123.53772,158.0254)">
      <g
         id="g4627"
         style="stroke:#000000;stroke-width:1.955;stroke-miterlimit:4;stroke-dasharray:none;stroke-opacity:1">
        <g
           id="g4633"
           style="stroke-width:1.955;stroke-miterlimit:4;stroke-dasharray:none">
          <path
             sodipodi:nodetypes="cssc"
             style="fill:none;stroke:#000000;stroke-width:1.95500004;stroke-linecap:butt;stroke-linejoin:miter;stroke-miterlimit:4;stroke-dasharray:none;stroke-opacity:1"
             d="m 133.61575,49.377783 c -8.78162,28.034198 -2.00387,80.077817 -14.46893,117.554497 -8.06434,24.24574 -18.40924,47.43444 -31.617285,66.63266 -14.845011,21.57759 -33.306853,38.11429 -56.21269,45.44523"
             id="path4615"
             inkscape:connector-curvature="0" />
          <path
             sodipodi:nodetypes="cc"
             inkscape:connector-curvature="0"
             id="path4619"
             d="m 133.61575,49.377783 c 5.53344,-14.017017 6.98924,-30.868645 7.73913,-40.2599152"
             style="fill:none;stroke:#000000;stroke-width:1.955;stroke-linecap:butt;stroke-linejoin:miter;stroke-miterlimit:4;stroke-dasharray:none;stroke-opacity:1" />
        </g>
      </g>
    </g>
    <path
       style="fill:none;stroke:#000000;stroke-width:1.56500006;stroke-linecap:butt;stroke-linejoin:miter;stroke-miterlimit:4;stroke-dasharray:none;stroke-dashoffset:1.1825;stroke-opacity:1"
       d="M 86.178572,234.63393 H 58.208332 C 38.989797,215.41539 38.498143,216.26332 20.410713,194.94642 c 2.492865,-16.10076 2.645835,-16.81742 5.291668,-31.75"
       id="path4635"
       inkscape:connector-curvature="0"
       sodipodi:nodetypes="cccc" />
    <path
       style="fill:none;stroke:#000000;stroke-width:1.56500006;stroke-linecap:butt;stroke-linejoin:miter;stroke-miterlimit:4;stroke-dasharray:none;stroke-dashoffset:1.1825;stroke-opacity:1"
       d="m 39.358623,140.80751 c 23.230622,4.98027 22.284609,4.84884 43.418145,10.19423 19.812352,23.54238 19.696992,23.39003 35.529772,41.57738 -0.76936,16.38824 -0.41957,15.48456 -1.6796,34.4227"
       id="path4637"
       inkscape:connector-curvature="0"
       sodipodi:nodetypes="cccc" />
    <path
       style="fill:none;stroke:#000000;stroke-width:1.56500006;stroke-linecap:butt;stroke-linejoin:miter;stroke-miterlimit:4;stroke-dasharray:none;stroke-dashoffset:1.1825;stroke-opacity:1"
       d="m 71.995202,67.913386 c 0.976791,14.445856 1.568156,14.564408 3.401786,44.979164 41.958212,49.65875 42.336472,50.36924 61.232142,72.57143 36.66225,1.93227 36.17719,1.46908 49.49636,1.16697"
       id="path4651"
       inkscape:connector-curvature="0"
       sodipodi:nodetypes="cccc" />
    <path
       style="fill:none;stroke:#000000;stroke-width:1.56500006;stroke-linecap:butt;stroke-linejoin:miter;stroke-miterlimit:4;stroke-dasharray:none;stroke-dashoffset:1.1825;stroke-opacity:1"
       d="m 91.848213,34.306547 c 12.243907,1.252359 12.280267,1.660678 48.758927,8.315477 34.10889,39.633132 34.55881,39.718836 58.20833,69.547626 1.23948,11.24492 1.20559,11.55426 4.15774,53.29464"
       id="path4653"
       inkscape:connector-curvature="0"
       sodipodi:nodetypes="cccc" />
    <g
       id="g4682"
       transform="translate(0.33998768,11.198458)"
       style="stroke-width:0.2;stroke-miterlimit:4;stroke-dasharray:none">
      <g
         id="g4685"
         style="stroke-width:0.2;stroke-miterlimit:4;stroke-dasharray:none" />
      <path
         style="fill:none;stroke:#000000;stroke-width:1.89999998;stroke-linecap:butt;stroke-linejoin:miter;stroke-miterlimit:4;stroke-dasharray:none;stroke-opacity:1"
         d="m 50.228438,194.9807 c -15.21613,-16.56159 -15.21613,-16.56159 -15.21613,-16.56159 3.499663,-26.08958 1.942648,-19.86153 3.499663,-26.08958 32.977929,30.21845 35.994892,30.68158 67.861299,56.7388 0.34267,-8.20848 0.28079,-8.64409 0,-24.05426 -10.02146,-11.00997 -9.915904,-10.90211 -14.432553,-14.9671"
         id="path4687"
         inkscape:connector-curvature="0"
         sodipodi:nodetypes="cccccc" />
    </g>
    <path
       style="fill:none;stroke:#000000;stroke-width:1.56500006;stroke-linecap:butt;stroke-linejoin:miter;stroke-miterlimit:4;stroke-dasharray:none;stroke-opacity:1"
       d="M 128.28937,149.46722 C 90.337099,106.16956 102.1966,119.83834 90.337099,106.16956 88.583905,83.756892 88.494287,83.676081 89.921136,75.322855 142.51139,130.61158 142.20246,130.29686 187.93172,172.1504 152.19762,117.7802 152.18962,117.79759 98.6544,52.642141 l 30.47027,3.878886 c 8.50828,9.61767 8.36064,9.223758 35.91819,39.595127"
       id="path4689"
       inkscape:connector-curvature="0"
       sodipodi:nodetypes="ccccccc" />
    <ellipse
       style="opacity:0.75700001;fill:#000000;stroke:none;stroke-width:0;stroke-miterlimit:4;stroke-dasharray:none;stroke-dashoffset:4.46929121;stroke-opacity:1"
       id="path4693-1"
       cx="25.324406"
       cy="164.70833"
       rx="3.4138012"
       ry="3.2248132" />
    <ellipse
       style="opacity:0.75700001;fill:#000000;stroke:none;stroke-width:0;stroke-miterlimit:4;stroke-dasharray:none;stroke-dashoffset:4.46929121;stroke-opacity:1"
       id="path4693-2"
       cx="85.866676"
       cy="233.53304"
       rx="3.4138012"
       ry="3.2248132" />
    <ellipse
       style="opacity:0.75700001;fill:#000000;stroke:none;stroke-width:0;stroke-miterlimit:4;stroke-dasharray:none;stroke-dashoffset:4.46929121;stroke-opacity:1"
       id="path4693-7"
       cx="50.667332"
       cy="205.87469"
       rx="3.4138012"
       ry="3.2248132" />
    <ellipse
       style="opacity:0.75700001;fill:#000000;stroke:none;stroke-width:0;stroke-miterlimit:4;stroke-dasharray:none;stroke-dashoffset:4.46929121;stroke-opacity:1"
       id="path4693-3"
       cx="93.738091"
       cy="181.71727"
       rx="3.4138012"
       ry="3.2248132" />
    <ellipse
       style="opacity:0.75700001;fill:#000000;stroke:none;stroke-width:0;stroke-miterlimit:4;stroke-dasharray:none;stroke-dashoffset:4.46929121;stroke-opacity:1"
       id="path4693-70"
       cx="39.984871"
       cy="140.91034"
       rx="3.4138012"
       ry="3.2248132" />
    <ellipse
       style="opacity:0.75700001;fill:#000000;stroke:none;stroke-width:0;stroke-miterlimit:4;stroke-dasharray:none;stroke-dashoffset:4.46929121;stroke-opacity:1"
       id="path4693-9"
       cx="116.64796"
       cy="225.955"
       rx="3.4138012"
       ry="3.2248132"
       inkscape:transform-center-x="0.34493454"
       inkscape:transform-center-y="-1.3797382" />
    <ellipse
       style="opacity:0.75700001;fill:#000000;stroke:none;stroke-width:0;stroke-miterlimit:4;stroke-dasharray:none;stroke-dashoffset:4.46929121;stroke-opacity:1"
       id="path4693-98"
       cx="72.028236"
       cy="68.669342"
       rx="3.4138012"
       ry="3.2248132" />
    <ellipse
       style="opacity:0.75700001;fill:#000000;stroke:none;stroke-width:0;stroke-miterlimit:4;stroke-dasharray:none;stroke-dashoffset:4.46929121;stroke-opacity:1"
       id="path4693-700"
       cx="128.5119"
       cy="149.96727"
       rx="3.4138012"
       ry="3.2248132" />
    <ellipse
       style="opacity:0.75700001;fill:#000000;stroke:none;stroke-width:0;stroke-miterlimit:4;stroke-dasharray:none;stroke-dashoffset:4.46929121;stroke-opacity:1"
       id="path4693-93"
       cx="165.55357"
       cy="96.29464"
       rx="3.4138012"
       ry="3.2248132" />
    <ellipse
       style="opacity:0.75700001;fill:#000000;stroke:none;stroke-width:0;stroke-miterlimit:4;stroke-dasharray:none;stroke-dashoffset:4.46929121;stroke-opacity:1"
       id="path4693-18"
       cx="203.35118"
       cy="164.70833"
       rx="3.4138012"
       ry="3.2248132" />
    <ellipse
       style="opacity:0.75700001;fill:#000000;stroke:none;stroke-width:0;stroke-miterlimit:4;stroke-dasharray:none;stroke-dashoffset:4.46929121;stroke-opacity:1"
       id="path4693-4"
       cx="184.71271"
       cy="185.9411"
       rx="3.4138012"
       ry="3.2248132" />
    <ellipse
       style="opacity:0.75700001;fill:#000000;stroke:none;stroke-width:0;stroke-miterlimit:4;stroke-dasharray:none;stroke-dashoffset:4.46929121;stroke-opacity:1"
       id="path4693-26"
       cx="93.360123"
       cy="34.684521"
       rx="3.4138012"
       ry="3.2248132" />
    <ellipse
       style="opacity:0.75700001;fill:#000000;stroke:none;stroke-width:0;stroke-miterlimit:4;stroke-dasharray:none;stroke-dashoffset:4.46929121;stroke-opacity:1"
       id="path4693-1-1"
       cx="-15.85386"
       cy="216.51117"
       rx="3.4138012"
       ry="3.2248132" />
    <path
       style="opacity:0.75700001;fill:#008000;stroke:url(#linearGradient4606);stroke-width:9.44881902;stroke-miterlimit:4;stroke-dasharray:none;stroke-dashoffset:4.46929121;stroke-opacity:1;fill-opacity:1"
       d="M 110.49347,768.81584 C 95.696958,752.13683 83.235959,736.95766 82.802362,735.08431 c -0.433596,-1.87333 2.716222,-24.52345 6.999596,-50.33355 6.850551,-41.27904 8.589568,-47.72912 14.447772,-53.58733 5.26154,-5.26154 6.19549,-7.92257 4.44829,-12.67426 -3.27451,-8.9053 -14.444696,-12.1245 -21.117275,-6.08589 -2.911543,2.63489 -5.293715,4.19901 -5.293715,3.4758 0,-0.72324 8.214731,-18.43803 18.25496,-39.36621 10.04022,-20.92818 37.66285,-83.58429 61.38361,-139.2358 C 232.10776,272.62205 273.94094,193.38064 317.89147,141.84279 381.20167,67.603142 459.78758,44.236832 548.8458,73.172062 617.01106,95.319115 650.56495,130.83154 674.405,206.06009 c 4.48589,14.1555 11.07915,32.39307 14.65167,40.52791 l 6.49548,14.79064 -17.7039,21.14982 c -16.77783,20.04351 -17.92959,20.9065 -22.01848,16.49792 -2.37303,-2.55855 -29.90948,-34.57159 -61.19214,-71.14008 -31.28265,-36.56849 -57.68672,-67.42279 -58.6757,-68.5651 -1.89218,-2.18552 -152.80726,-30.51531 -162.55758,-30.51531 -3.11222,0 -7.12411,-2.34664 -8.91528,-5.21475 -4.78967,-7.66949 -17.60387,-6.9434 -23.00759,1.30368 -3.95647,6.03836 -3.95647,6.99855 0,13.0369 4.96015,7.57014 14.7204,8.6133 21.08064,2.25307 3.94892,-3.94893 6.33249,-3.92824 32.12664,0.27879 62.78071,10.23955 134.57353,24.85076 137.58793,28.00177 1.76908,1.84926 29.76289,34.38703 62.20849,72.30614 34.81683,40.69041 58.43178,70.40367 57.62501,72.50608 -3.65698,9.5299 -25.84166,37.15555 -29.83762,37.15555 -3.71335,0 -39.4777,-38.07493 -124.29969,-132.33018 l -7.63101,-8.47967 -61.0728,-7.79977 c -33.59006,-4.28988 -61.62361,-7.24897 -62.29681,-6.57577 -1.48941,1.4894 -3.97669,-1.73238 40.29491,52.19392 85.26693,103.86179 157.38996,194.89019 157.37838,198.63142 -0.003,1.17522 -5.70208,10.69476 -12.66323,21.15452 l -12.65664,19.01778 -59.87504,-62.03953 C 446.51939,390.08411 401.48969,343.14057 379.38467,319.88689 352.13643,291.22274 338.34118,278.46308 336.5464,280.26446 c -3.21859,3.23044 -2.9359,100.83407 0.33351,115.15075 1.73223,7.58536 17.16705,26.82138 68.72214,85.64659 78.40991,89.46705 76.03151,84.40613 51.11639,108.76844 l -15.91678,15.56357 -75.88646,-90.36349 -75.88645,-90.36347 -1.7803,-27.33921 c -0.97916,-15.03654 -3.57491,-48.86661 -5.76833,-75.17791 -3.61384,-43.35014 -3.60472,-48.26228 0.0972,-52.35289 11.36432,-12.55743 -4.1421,-30.93268 -17.21478,-20.39966 -7.30352,5.88465 -7.71188,12.29134 -1.1986,18.80462 5.68197,5.68197 6.43505,9.91147 10.30391,57.8694 2.29565,28.45668 4.94305,63.15592 5.88311,77.10944 l 1.7092,25.37 76.52702,90.65837 c 42.08985,49.86208 76.56501,91.41137 76.6115,92.33178 0.12122,2.40025 -43.08457,38.74093 -46.05946,38.74093 -1.36569,0 -18.23504,-18.72778 -37.48743,-41.61731 L 315.64743,567.04706 256.9814,552.79038 c -32.26631,-7.84117 -65.70595,-15.75464 -74.3103,-17.58552 -10.47005,-2.22782 -17.21602,-5.30719 -20.39643,-9.31045 -5.50017,-6.92317 -15.22917,-7.79056 -21.1354,-1.88433 -5.44396,5.44397 -5.18104,12.36537 0.67091,17.66129 5.56868,5.0396 11.66319,5.49615 18.27212,1.3688 3.661,-2.28634 11.97663,-1.39005 37.11977,4.00092 54.38011,11.65967 112.44907,27.02366 115.96128,30.68118 9.10591,9.4827 66.36487,78.92021 66.36487,80.48018 0,3.22123 -19.69627,15.54459 -24.91024,15.58561 -7.14777,0.0563 -10.87155,2.93765 -13.82057,10.69414 -3.17531,8.35172 -56.23585,45.21656 -61.01898,42.39413 -5.60038,-3.30467 -64.37114,-53.66349 -99.58975,-85.33532 -18.57403,-16.70347 -34.60118,-30.36997 -35.61588,-30.36997 -2.18601,0 -5.78815,21.89424 -11.7199,71.235 l -4.33218,36.03542 8.89832,9.59372 c 4.89407,5.27658 16.28143,17.49908 25.30524,27.16115 20.89228,22.37 20.78845,26.73601 -0.83461,35.09443 -8.56167,3.30952 -17.57521,6.65479 -20.03008,7.43393 -3.25531,1.0332 -11.74504,-6.79142 -31.36615,-28.90885 z"
       id="path4568"
       inkscape:connector-curvature="0"
       transform="scale(0.26458333)" />
    <path
       style="opacity:0.75700001;fill:#008000;stroke:none;stroke-width:0;stroke-miterlimit:4;stroke-dasharray:none;stroke-dashoffset:4.46929121;stroke-opacity:1"
       d="m 413.66378,477.66822 c -56.37412,-64.47397 -66.55121,-77.36823 -68.279,-86.50871 -3.4322,-18.15729 -5.89396,-86.46623 -3.28419,-91.12964 1.98475,-3.54654 14.75432,8.53495 71.41801,67.5697 37.95062,39.53864 80.53642,84.09548 94.63511,99.01519 l 25.63398,27.12676 -12.59708,17.70522 c -25.97136,36.50279 -30.81964,42.15905 -36.0635,42.07362 -3.52446,-0.0574 -26.68845,-24.64399 -71.46333,-75.85214 z"
       id="path4570"
       inkscape:connector-curvature="0"
       transform="scale(0.26458333)" />
    <path
       style="opacity:0.75700001;fill:#008000;stroke:none;stroke-width:0;stroke-miterlimit:4;stroke-dasharray:none;stroke-dashoffset:4.46929121;stroke-opacity:1;fill-opacity:1"
       d="M 560.78765,425.3396 C 551.19352,411.73523 459.87662,297.71822 416.49607,245.17913 c -17.60453,-21.3212 -31.64968,-39.12436 -31.21147,-39.56258 0.43822,-0.43821 23.03764,2.02882 50.22093,5.4823 43.32288,5.50392 50.12746,7.00814 55.12114,12.1851 3.13333,3.24832 31.49287,34.3268 63.02119,69.0633 43.21446,47.61175 57.61687,65.15115 58.51315,71.25794 0.98329,6.69957 -2.38393,13.70211 -19.468,40.48606 -11.36131,17.81196 -21.43832,32.36033 -22.39335,32.32971 -0.95503,-0.0306 -5.23543,-5.01723 -9.51201,-11.08136 z"
       id="path4572"
       inkscape:connector-curvature="0"
       transform="scale(0.26458333)" />
    <path
       style="opacity:0.75700001;fill:url(#linearGradient4732);stroke:none;stroke-width:0;stroke-miterlimit:4;stroke-dasharray:none;stroke-dashoffset:4.46929121;stroke-opacity:1;fill-opacity:1"
       d="m 712.03996,704.92201 c 2.87902,-4.65837 -6.20853,-15.5296 -12.98163,-15.5296 -6.49767,0 -14.46672,6.07629 -14.46672,11.0307 0,2.84734 -83.30002,1.48438 -141.20573,-2.31042 l -25.39108,-1.66398 -30.77443,-36.58724 c -16.92594,-20.123 -32.31832,-38.73911 -34.20529,-41.36912 -3.04778,-4.24792 -1.73767,-6.66097 11.7332,-21.61079 9.66491,-10.72601 17.22402,-16.85979 20.84443,-16.91399 7.87986,-0.11812 14.55733,-7.51789 13.19846,-14.62636 -0.79191,-4.14263 2.64762,-10.77327 11.56575,-22.29617 6.98107,-9.02007 17.00034,-22.6544 22.26503,-30.29851 l 9.57218,-13.89837 26.22145,25.74987 c 21.25928,20.87693 108.95722,102.19118 133.81038,124.07004 4.35115,3.83045 6.66718,4.42887 8.8177,2.27835 2.15051,-2.15051 -9.75386,-21.96779 -45.32283,-75.4491 -26.53168,-39.89288 -57.29822,-85.16933 -68.37009,-100.61433 l -20.13068,-28.08182 21.82396,-34.3499 c 18.41014,-28.9767 23.1113,-34.68348 30.05369,-36.48244 8.79891,-2.28002 12.59912,-9.09839 9.86763,-17.70457 -1.89538,-5.97181 18.46473,-37.28816 23.24143,-35.74817 1.55623,0.50171 21.23859,23.70812 43.73858,51.56978 35.81874,44.35419 41.10955,52.11753 42.52027,62.39076 0.88617,6.45327 4.302,48.10615 7.59074,92.56196 5.03592,68.07341 5.42366,81.47836 2.45701,84.94513 -4.36288,5.09842 -4.54868,13.36986 -0.39366,17.52487 5.1862,5.18621 17.02175,3.7181 21.49341,-2.66607 5.41357,-7.72895 5.19507,-9.04539 -2.71861,-16.37955 -6.2004,-5.74633 -6.96541,-8.78862 -8.98365,-35.72696 -1.21337,-16.19517 -4.09557,-54.67216 -6.4049,-85.50441 -2.30933,-30.83226 -5.19499,-59.81019 -6.41256,-64.3954 -1.24249,-4.67897 -21.06382,-31.69267 -45.17655,-61.56926 l -42.96275,-53.23251 6.63554,-8.82998 c 3.64955,-4.85649 11.90612,-14.3345 18.34793,-21.06225 l 11.71239,-12.23227 9.76652,4.98251 c 5.37159,2.74038 22.49657,7.42162 38.0555,10.40275 67.18859,12.8735 87.34392,20.69353 104.98245,40.73196 46.0938,52.3653 26.28387,169.06241 -46.19155,272.10699 -25.38922,36.09804 -90.73293,109.50993 -97.47452,109.50993 -1.33688,0 -1.67368,-1.22493 -0.7484,-2.72206 z"
       id="path4574"
       inkscape:connector-curvature="0"
       transform="scale(0.26458333)" />
    <path
       style="opacity:0.75700001;fill:url(#linearGradient4758);stroke:none;stroke-width:0;stroke-miterlimit:4;stroke-dasharray:none;stroke-dashoffset:4.46929121;stroke-opacity:1"
       d="M 644.17724,584.45259 C 625.53448,567.01355 596.0255,539.198 578.60175,522.64026 l -31.67956,-30.10497 12.40209,-18.98391 12.40209,-18.9839 10.69289,14.16263 c 9.01573,11.94125 81.03489,117.80853 95.56909,140.48539 2.5276,3.94366 3.5807,7.11948 2.34023,7.05737 -1.24048,-0.0621 -17.50858,-14.38123 -36.15134,-31.82028 z"
       id="path4576"
       inkscape:connector-curvature="0"
       transform="scale(0.26458333)" />
    <path
       style="opacity:0.75700001;fill:url(#linearGradient4724);stroke:none;stroke-width:0;stroke-miterlimit:4;stroke-dasharray:none;stroke-dashoffset:4.46929121;stroke-opacity:1;fill-opacity:1"
       d="M 151.38258,914.68139 C 52.580654,904.72175 -35.973162,876.79143 -114.1303,830.93729 l -17.81187,-10.45006 12.49941,-3.14739 C -52.678651,800.52845 13.912347,737.18705 68.197953,638.8559 c 10.242325,-18.55261 12.962327,-21.92363 13.67496,-16.94796 0.489265,3.41608 2.430135,7.97104 4.313041,10.12213 2.836933,3.241 2.586481,8.82494 -1.46184,32.59224 -2.686918,15.77464 -6.497957,38.81883 -8.468974,51.2093 l -3.583668,22.52812 26.958001,30.92315 c 14.826907,17.00773 26.963627,31.61805 26.970517,32.46737 0.0156,2.00184 -40.728304,11.87388 -62.564614,15.15885 -30.572058,4.59916 -63.50795731,5.87767 -85.486083,3.31844 -18.138063,-2.11209 -22.616245,-3.60666 -27.904826,-9.31314 -7.449676,-8.03833 -11.718816,-8.47684 -19.689645,-2.02246 -11.363135,9.20131 0.290671,26.51054 14.368422,21.3412 2.82611,-1.03774 23.945881,-1.31942 46.9328249,-0.62596 47.4052451,1.43011 74.5262181,-1.40692 116.3093711,-12.1667 l 28.10563,-7.2376 39.91644,39.97886 39.91645,39.97887 h 48.76602 c 29.69815,0 49.39612,1.01951 50.37748,2.60738 2.24045,3.62511 15.24353,3.26887 19.03387,-0.52148 5.70521,-5.70521 3.77658,-17.54685 -3.38959,-20.81198 -7.79192,-3.55024 -19.55534,0.62266 -19.55534,6.93697 0,3.39783 -6.4576,3.96697 -45.01101,3.96697 H 221.71436 L 184.30567,844.8629 c -20.57481,-20.61156 -36.35096,-38.12929 -35.05817,-38.92829 6.38988,-3.94917 38.70367,-14.85441 44.01574,-14.85441 3.33309,0 7.59334,-2.05331 9.46724,-4.56292 1.87387,-2.5096 8.10034,-6.73347 13.83658,-9.38638 5.73623,-2.65291 22.58222,-11.82011 37.43552,-20.37156 l 27.00601,-15.54807 16.01575,12.42694 c 8.80866,6.83482 36.79379,29.20188 62.18917,49.70457 25.39538,20.50269 46.80848,37.27762 47.58467,37.27762 0.77619,0 1.41124,-22.80178 1.41124,-50.67063 V 739.27913 L 387.59168,717.4979 c -24.4555,-25.83554 -25.77994,-31.77048 -9.89873,-44.35642 5.44386,-4.31427 10.21135,-7.40936 10.59445,-6.87796 0.38311,0.53139 12.82839,14.87869 27.65619,31.88288 l 26.95967,30.91671 -2.35449,54.26796 c -2.25235,51.91382 -2.62281,54.55344 -8.53997,60.84905 -11.30192,12.02473 -1.07753,26.412 15.11706,21.27203 7.45747,-2.36691 9.8208,-13.30145 4.21397,-19.49694 -4.00887,-4.42974 -4.22544,-10.0648 -2.32578,-60.5165 1.15209,-30.59756 2.12225,-56.45976 2.15594,-57.47156 0.0336,-1.0118 -12.71439,-16.64734 -28.329,-34.74563 -23.81416,-27.60206 -27.8067,-33.44777 -24.7701,-36.26723 1.99105,-1.84868 12.62444,-11.11166 23.62971,-20.5844 l 20.00966,-17.22316 35.78716,42.29314 35.78717,42.29313 18.51349,1.72707 c 10.18244,0.94989 48.43318,2.50809 85.00168,3.46266 36.56849,0.95457 68.83481,2.75688 71.70292,4.00512 2.86812,1.24825 7.5614,2.6573 10.42952,3.13123 3.98142,0.6579 -1.56865,6.2704 -23.46641,23.73041 -115.57284,92.15114 -245.59898,149.4881 -385.89212,170.1649 -25.25799,3.72259 -117.01787,6.86135 -138.19109,4.727 z"
       id="path4578"
       inkscape:connector-curvature="0"
       transform="scale(0.26458333)" />
    <path
       style="opacity:0.75700001;fill:url(#linearGradient4750);stroke:none;stroke-width:0;stroke-miterlimit:4;stroke-dasharray:none;stroke-dashoffset:4.46929121;stroke-opacity:1"
       d="m 343.33689,777.77852 -52.42513,-41.92628 27.13923,-18.99953 c 21.48856,-15.04365 28.56735,-18.72653 33.99831,-17.68834 4.29905,0.82182 13.86992,9.02715 25.64301,21.98435 l 18.78391,20.67315 1.61474,18.76256 c 2.52683,29.36067 2.51927,56.12401 -0.0164,57.69108 -1.27195,0.78611 -25.90394,-17.43754 -54.73776,-40.49699 z"
       id="path4580"
       inkscape:connector-curvature="0"
       transform="scale(0.26458333)" />
    <path
       style="opacity:0.75700001;fill:#008000;stroke:none;stroke-width:0;stroke-miterlimit:4;stroke-dasharray:none;stroke-dashoffset:4.46929121;stroke-opacity:1"
       d="m 199.61909,767.61379 c -2.15109,-1.39014 -6.40655,-2.5455 -9.45658,-2.56746 -3.64499,-0.0262 -13.36922,-8.56309 -28.37427,-24.90963 l -22.82876,-24.86971 4.67025,-40.96662 c 2.56864,-22.53163 5.51517,-41.93927 6.54785,-43.12808 1.03268,-1.18881 9.35285,4.73474 18.48927,13.16344 19.51362,18.00208 70.63496,62.53385 90.44167,78.7837 l 13.86029,11.37128 -17.77136,10.32262 c -21.34229,12.39681 -46.83085,25.42311 -49.6374,25.36791 -1.11644,-0.022 -3.78987,-1.17731 -5.94096,-2.56745 z"
       id="path4582"
       inkscape:connector-curvature="0"
       transform="scale(0.26458333)" />
    <path
       style="opacity:0.75700001;fill:#008000;stroke:none;stroke-width:0;stroke-miterlimit:4;stroke-dasharray:none;stroke-dashoffset:4.46929121;stroke-opacity:1"
       id="path4682"
       d="m 189.27267,67.337614 c 1.09664,0.107378 2.12398,-0.15607 3.01317,-0.802188 -13.72312,7.883014 0.70253,-0.388178 1.049,-0.590632 1.7483,-1.021577 -3.5102,2.019805 -5.27417,3.014086 -0.16212,0.09138 0.31317,-0.201179 0.46771,-0.304866 0.45904,-0.307996 0.40234,-0.276307 0.84012,-0.61717 0.78047,-0.629409 1.51865,-1.314879 2.19769,-2.052442 0.84871,-0.938882 1.56039,-1.987835 2.43106,-2.90721 0.79471,-0.834861 1.38799,-1.832218 2.08982,-2.743086 0.59209,-0.835104 1.0499,-1.747782 1.55692,-2.633321 0.50589,-0.859607 1.18377,-1.589799 1.72895,-2.422467 0.61848,-0.804301 1.15884,-1.614522 1.57351,-2.54037 0.37471,-0.94656 1.04059,-1.713357 1.6068,-2.541553 0.53531,-0.869741 1.18129,-1.654831 1.69336,-2.538484 0.55905,-1.000321 1.07787,-2.022494 1.64171,-3.019986 0.55215,-0.855991 1.12108,-1.703073 1.6063,-2.600021 0.43719,-0.91087 1.01454,-1.736301 1.66768,-2.503138 1.70421,-2.386676 4.9839,-5.888376 7.96994,-4.771107 0.77651,0.718751 1.18404,1.751841 1.45812,2.755691 0.21861,1.133552 0.65574,2.195632 0.75981,3.352088 0.0825,1.117513 -0.60949,1.824252 -1.22857,2.650345 -0.68755,0.702815 -1.47784,1.298509 -2.23079,1.930019 -0.73982,0.642795 -1.45142,1.297146 -2.0238,2.094838 -0.64897,0.74162 -1.42593,1.333352 -2.03189,2.113648 -0.70567,0.693627 -1.54141,1.196044 -2.26127,1.884971 -0.75202,0.812782 -1.66783,1.423575 -2.41697,2.239148 -0.65924,0.913923 -1.59428,1.517377 -2.45077,2.222143 -0.978,0.562811 -1.73319,1.390229 -2.58242,2.115343 -0.84541,0.679651 -1.67473,1.378897 -2.4665,2.120493 -0.80063,0.591288 -1.61532,1.158388 -2.3941,1.779537 -0.70908,0.699714 -1.48987,1.292024 -2.29588,1.871707 -0.95924,0.707705 -1.79495,1.574015 -2.67046,2.382719 -1.46096,1.878515 -9.09714,5.213466 -6.74433,2.931038 0.80609,-0.822044 1.65064,-1.605719 2.46915,-2.415804 0.95574,-0.884336 1.73545,-1.926508 2.619,-2.874098 0.70827,-0.719579 1.53443,-1.315326 2.20479,-2.070732 0.58439,-0.790774 1.17618,-1.574673 1.83045,-2.309291 0.57,-0.823564 1.08553,-1.654419 1.84893,-2.313345 0.85963,-0.616003 1.49595,-1.454658 2.22791,-2.206077 0.94265,-0.761307 1.71311,-1.684756 2.48468,-2.611036 0.72974,-0.704156 1.56557,-1.256982 2.21654,-2.040035 0.60231,-0.774793 1.24675,-1.512752 1.90192,-2.242693 0.8746,-0.539909 1.38911,-1.341816 2.0029,-2.128718 0.71008,-0.676937 1.33531,-1.405266 1.92776,-2.184731 0.89301,-2.488422 7.39211,-6.758056 6.711,-3.195148 -0.31515,0.943247 -1.03604,1.707406 -1.6316,2.495254 -0.79489,0.907769 -1.5775,1.812634 -2.29385,2.786866 -0.73306,1.055111 -1.55603,2.041679 -2.43019,2.982045 -0.67299,0.689343 -1.22352,1.466503 -1.92694,2.12771 0,0 -6.22902,2.571957 -6.22902,2.571957 v 0 c 0.68615,-0.697138 1.41475,-1.310982 1.96018,-2.140514 0.94481,-0.841086 1.73944,-1.866603 2.46119,-2.900151 0.76174,-0.911058 1.33666,-1.978334 2.27372,-2.741276 0.51769,-0.785413 1.10246,-1.514967 1.70385,-2.22358 0.20527,-0.893421 -0.12084,0.111612 0.3075,-0.104777 9.69435,-4.897419 6.37892,-4.946372 5.28247,-2.353114 -0.53532,0.847823 -1.14907,1.605126 -1.88361,2.282232 -0.7775,0.650018 -0.97109,1.760807 -1.99522,2.146596 -0.73363,0.635175 -1.34,1.428068 -1.92145,2.198431 -0.69851,0.750681 -1.28256,1.56768 -2.22664,2.058644 -0.86087,0.85589 -1.46494,1.960869 -2.49864,2.641279 -0.73332,0.746625 -1.33525,1.619369 -2.17361,2.228578 -0.76929,0.727181 -1.44084,1.167535 -1.8873,2.221812 -0.59283,0.777092 -1.29899,1.457587 -1.84973,2.270035 -0.5422,0.917784 -1.42958,1.463289 -2.1714,2.205874 -1.02811,0.800557 -1.65214,2.012047 -2.66573,2.845421 -0.75126,0.831808 -1.57245,1.604092 -2.39568,2.353297 -0.61674,0.836634 0.14643,-0.01685 -0.47123,0.258612 -10.03932,4.47739 -7.2278,4.146603 -5.25696,1.972834 0.92924,-0.750885 1.75112,-1.614202 2.60296,-2.451262 0.84988,-0.507053 1.61897,-1.089308 2.33455,-1.767252 0.68343,-0.724961 1.53805,-1.301155 2.39204,-1.80367 0.85819,-0.680048 1.60483,-1.493086 2.47335,-2.164837 0.93483,-0.639895 1.55772,-1.609098 2.58224,-2.108869 1.91115,-1.416659 -0.99839,0.769543 0.88919,-0.749676 0.55892,-0.449845 1.25393,-0.683728 1.58891,-1.379961 1.67263,-1.667851 -0.96036,0.991571 0.74243,-0.84991 0.4902,-0.53013 1.18995,-0.811409 1.6658,-1.364025 0.63119,-0.800225 1.37233,-1.394418 2.27245,-1.859595 0.65519,-0.733168 1.17928,-1.558248 2.04202,-2.091582 0.6352,-0.761092 1.12142,-1.632336 1.98399,-2.187551 0.66139,-0.715814 1.47617,-1.287737 2.25537,-1.864344 0.69401,-0.717484 -0.0272,0.07643 0.58237,-0.75534 0.37204,-0.507672 0.917,-0.717317 0.86405,-1.454301 0.0622,-1.122228 -0.52094,-2.119326 -0.67384,-3.216193 -0.17933,-0.680127 -0.45051,-1.703448 -1.09915,-2.061964 -2.30831,0.508754 -0.15694,0.06221 5.16247,-3.113132 0.14044,-0.08384 -0.3063,0.118832 -0.44733,0.201681 -0.29598,0.173876 -0.492,0.369559 -0.67819,0.65763 -0.0952,0.147277 -0.16171,0.311218 -0.24256,0.466828 -0.59021,0.784156 -1.29326,1.4713 -1.73969,2.361771 -0.3885,0.948777 -0.97209,1.833396 -1.59548,2.641013 -0.54221,1.016254 -1.13142,2.00275 -1.64391,3.032289 -0.50145,0.897384 -1.01439,1.746911 -1.67258,2.539103 -0.45563,0.901861 -1.24514,1.558441 -1.62747,2.502604 -0.26464,0.469767 -0.381,0.977585 -0.65145,1.442881 -0.43463,0.747752 -0.11537,0.09537 -0.61158,0.757253 -0.1018,0.135792 -0.1739,0.291505 -0.26084,0.437259 -0.61353,0.763928 -1.07431,1.63749 -1.76735,2.346497 -0.48418,0.924546 -1.00576,1.816393 -1.52752,2.717411 -0.67224,0.962411 -1.41564,1.874374 -2.0769,2.845744 -0.90874,0.875374 -1.65238,1.86749 -2.42576,2.85959 -0.65753,0.792618 -1.38875,1.480193 -2.13586,2.183345 -0.57532,0.40541 -0.29764,0.182888 -0.83082,0.670321 -2.07845,1.547149 -4.49359,2.582485 -6.70271,3.936519 -0.13397,0.08211 15.87873,-9.233961 -1.03655,0.605972 -1.06131,0.470602 -2.15393,0.62107 -3.31247,0.586809 0,0 5.52093,-4.011186 5.52093,-4.011186 z"
       inkscape:connector-curvature="0" />
    <path
       style="opacity:0.75700001;fill:#008000;fill-opacity:1;stroke:none;stroke-width:24.6366539;stroke-miterlimit:4;stroke-dasharray:none;stroke-dashoffset:4.46929121;stroke-opacity:1"
       d=""
       id="path4742"
       inkscape:connector-curvature="0"
       transform="scale(0.26458333)" />
  </g>
</svg>
